<?xml version="1.0" encoding="utf-8"?>
<svg xmlns="http://www.w3.org/2000/svg" fill="none" height="80" viewBox="0 0 134 80" width="134">
<path clip-rule="evenodd" d="M75.5098 5.97187L73.3809 14.4266C76.3965 8.45545 81.1857 3.96185 86.6849 0C82.6636 4.67103 78.9981 9.34221 76.7513 14.0132C80.5357 8.69141 85.6207 5.73605 91.3558 3.78442C83.7286 10.5844 77.6739 17.8812 73.0621 25.2124L69.3965 23.6164C70.0457 17.7624 72.2574 11.7673 75.5098 5.97187Z" fill="#ABCC03" fill-rule="evenodd"/>
<path clip-rule="evenodd" d="M65.72 22.0617L72.6971 24.956C72.6971 26.7303 72.5535 32.1421 73.6627 33.7381C85.2666 48.6826 83.3142 78.6395 71.312 79.4075C53.0348 79.4075 46.0645 66.9919 46.0645 55.5794C46.0645 45.1732 58.5395 38.2553 65.9901 32.1061C67.8823 30.4508 67.5535 26.7921 65.72 22.0617Z" fill="#FFFBDA" fill-rule="evenodd"/>
<path clip-rule="evenodd" d="M72.6992 24.8524L75.2131 26.1351C74.9773 27.7898 75.3318 31.4562 76.9867 32.4024C84.3196 36.9546 91.2367 41.9217 93.9569 46.8881C103.654 64.3905 87.1569 80.5904 72.907 79.0538C80.6533 73.3179 82.9 61.5522 80.0032 48.7209C78.8201 43.6953 76.9868 39.1421 73.7345 33.9975C72.3258 31.4725 72.818 28.3413 72.6992 24.8524Z" fill="#7D4598" fill-rule="evenodd"/>
<path clip-rule="evenodd" d="M71.489 24.4204L76.6922 25.1297C75.1554 30.2149 79.7086 33.7618 81.1868 34.5898C84.4976 36.4235 87.6905 38.3148 90.2328 40.621C95.0226 44.9867 97.7492 51.1696 97.7421 57.6499C97.7421 64.0945 94.7858 70.3032 89.8195 74.4421C85.1483 78.3445 78.7032 80 72.436 80C68.5336 80 65.0446 79.8225 61.2611 78.5803C52.6283 75.6835 46.1829 68.2929 45.6509 59.4233C45.1782 52.5054 46.7157 47.243 52.0961 41.7438C54.8751 38.8469 60.4923 35.5361 64.336 32.8751C66.2282 31.5743 68.2381 27.9079 64.3946 20.9907L65.164 20.3993L70.8601 24.214L66.0507 22.2321C66.4649 22.8235 67.5881 25.4845 67.8249 26.2525C68.3569 28.4407 68.1204 30.5697 67.6475 31.5149C65.2234 35.8907 61.0844 37.0735 58.0687 39.5563C52.7476 43.932 46.9531 47.4205 47.6031 59.4234C47.8992 65.336 52.511 72.5492 59.429 75.9204C63.3311 77.8124 67.8249 78.5804 72.3781 78.8172C76.4568 78.9947 84.2623 76.5703 88.5194 73.0226C93.0724 69.2389 95.6146 63.5032 95.6146 57.65C95.6146 51.7368 93.2499 46.1197 88.8146 42.1578C86.2724 39.8525 82.0747 37.0735 79.4731 35.5947C76.8715 34.1165 73.6194 29.9775 74.6833 26.0165L71.489 24.4204Z" fill="black" fill-rule="evenodd"/>
<path clip-rule="evenodd" d="M69.8927 33.171C69.3607 35.8914 68.7693 40.7983 66.4042 42.6311C65.3989 43.3405 64.3935 44.0507 63.3293 44.76C59.0723 47.6576 54.8145 50.3765 52.8637 57.3538C52.4505 58.8326 52.8051 60.4288 53.1599 61.9068C54.2239 66.1638 57.2395 70.7764 59.6051 73.4958C59.6051 73.6145 60.0778 73.91 60.0778 74.0279C62.0293 76.3341 62.6207 76.985 70.0114 78.6395L69.8341 79.4677C65.3998 78.2857 61.7333 77.2215 59.4271 74.56C59.4271 74.5013 59.0137 74.0873 59.0137 74.0873C56.5301 71.2489 53.5144 66.5185 52.3911 62.0841C51.977 60.31 51.623 58.9506 52.0957 57.117C54.1059 49.9038 58.4817 47.0654 62.916 44.0498C63.9214 43.3998 65.1036 42.8085 66.0496 42.0397C67.8823 40.6802 68.8872 36.5414 69.8927 33.171Z" fill="black" fill-rule="evenodd"/>
<path clip-rule="evenodd" d="M71.7835 44.4045C71.8428 47.4795 71.5428 49.0216 72.3115 51.2101C72.7843 52.5101 74.3817 54.2843 74.8545 55.9991C75.5052 58.3053 76.2129 60.8475 76.1538 62.3851C76.1538 64.1593 76.0428 67.4687 75.274 71.0171C74.6879 73.9482 73.338 76.4638 71.067 77.8896C68.7404 77.4109 66.0093 76.5928 64.3968 75.2109C61.2631 72.4913 58.4875 67.9437 58.1326 63.982C57.8375 60.7303 60.8484 55.9344 65.0459 53.5102C68.5935 51.4405 69.4186 49.082 70.1874 45.2976C69.1232 48.6086 68.1232 51.3852 64.6944 53.1578C59.7273 55.7602 57.1794 60.1274 57.4154 64.2664C57.7702 69.5868 59.9014 73.1929 64.099 76.0905C65.8724 77.332 69.1865 78.6445 71.256 78.9991V78.729C72.8256 78.4352 74.8575 75.857 75.8693 72.3696C76.7567 69.2361 77.106 65.2258 77.0466 62.6829C76.9874 61.2047 76.335 58.004 75.1521 55.1063C74.5021 53.5102 73.5029 51.914 72.8522 50.7906C72.1436 49.6664 72.1387 47.2429 71.7835 44.4045Z" fill="black" fill-rule="evenodd"/>
<path clip-rule="evenodd" d="M71.432 55.9991C71.4913 58.0687 72.3225 60.7203 72.6765 63.4404C72.9733 65.4506 72.8444 67.4709 72.7851 69.2445C72.7265 71.2982 72.0429 74.9781 71.1078 76.767C70.2257 76.3623 69.8812 75.9014 69.3077 75.1569C68.5982 74.1514 68.117 73.1466 67.6438 71.9638C67.2889 71.0773 66.8751 70.0616 66.6968 68.8794C66.4602 67.1052 66.5266 64.3302 68.5367 61.492C70.0741 59.2452 70.4264 59.0748 70.9585 56.4732C70.2483 58.7788 69.7188 59.0139 68.0632 60.9646C66.2304 63.0936 65.9258 66.2289 65.9258 68.7709C65.9258 69.8359 66.35 71.0171 66.764 72.1396C67.2368 73.3224 67.643 74.4998 68.2937 75.3867C69.2709 76.8248 70.5218 77.6428 71.1343 77.7953C71.1389 77.7959 71.1438 77.7945 71.1475 77.7953C71.161 77.7982 71.1759 77.806 71.1881 77.8085V77.7413C72.336 76.4617 73.0265 75.1913 73.2586 73.9123C73.5539 72.3749 73.6217 70.8343 73.7991 69.0007C73.9774 67.4639 73.8482 65.393 73.4344 63.2647C72.8438 60.604 71.8459 57.8913 71.432 55.9991Z" fill="black" fill-rule="evenodd"/>
<path clip-rule="evenodd" d="M71.6071 30.6875C71.6664 33.7616 71.9024 39.4975 72.7303 41.7443C72.9663 42.5129 75.1546 45.8834 76.6914 49.9629C77.7555 52.8013 77.9922 55.4029 78.1697 56.1707C78.8796 59.5419 77.9922 65.2176 76.8094 70.5981C76.2189 73.4957 74.2079 77.1028 71.9025 78.5215L71.4297 79.3497C72.7304 79.2903 75.9227 76.1567 77.0461 72.2537C78.9382 65.6318 79.7071 62.5567 78.8202 55.2255C78.7025 54.5153 78.4062 52.0919 77.2828 49.4895C75.6274 45.5279 73.2625 41.7436 72.9672 40.9748C72.4345 39.7334 71.725 34.3531 71.6071 30.6875Z" fill="black" fill-rule="evenodd"/>
<path clip-rule="evenodd" d="M72.7164 26.4828C72.5406 29.6422 72.4938 30.8062 73.0851 33.1118C73.7352 35.6546 77.0468 39.3204 78.4061 43.5179C81.0077 51.5593 80.3578 62.0843 78.4656 70.3031C77.7562 73.1999 74.3852 77.3982 71.0156 78.7577L73.4985 79.349C74.8585 79.2896 78.3468 76.038 79.707 72.313C81.8946 66.4592 82.3086 59.4827 81.4217 52.1507C81.3625 51.4412 80.1796 45.1146 79.0562 42.4539C77.4593 38.4921 74.621 34.9445 74.3258 34.1766C73.7945 32.875 72.6258 30.1742 72.7164 26.4828Z" fill="black" fill-rule="evenodd"/>
<path clip-rule="evenodd" d="M70.8369 78.8178H71.0752V24.2586H70.8369V78.8178Z" fill="black" fill-rule="evenodd"/>
<path clip-rule="evenodd" d="M4.26014 7.74604H51.7397C53.513 7.74604 55.0507 9.22341 55.0507 11.057V25.0696C55.0507 26.9032 53.513 28.3812 51.7397 28.3812H41.9843C39.7958 28.3812 38.85 29.6226 38.85 31.0421V76.9248C38.85 78.4622 37.6086 79.6445 36.1303 79.6445H19.9882C18.5102 79.6445 17.3282 78.4622 17.3282 76.9248V30.6282C17.3282 29.2094 16.0267 28.382 15.0218 28.382H4.26021C3.38205 28.3836 2.53816 28.0344 1.91714 27.4133C1.29606 26.7922 0.947631 25.9492 0.949224 25.0704V11.057C0.947631 10.1782 1.29606 9.33519 1.91714 8.71403C2.53816 8.09218 3.38198 7.74383 4.26014 7.74604ZM126.074 26.3118H130.271C131.808 26.3118 133.05 27.554 133.05 29.0321V44.0499C133.05 46.0016 133.169 46.7704 130.803 46.7704C126.132 46.7704 124.004 49.2532 124.004 51.9733V77.3388C124.004 78.5217 122.881 79.5265 121.521 79.5265H106.443C105.083 79.5265 103.96 78.5217 103.96 77.3388V48.425C103.943 47.9172 103.953 47.1663 104.019 46.7703C104.846 36.068 113.243 27.5054 123.886 26.4304C124.243 26.3946 125.505 26.3118 126.074 26.3118Z" fill="#7D4598" fill-rule="evenodd"/>
</svg>